# xmcd CD database file
#
# Track frame offsets:
#	150
#	14472
#	24317
#	35422
#	44787
#	61967
#	74305
#	87782
#	95287
#	105502
#	114647
#	128205
#	141425
#	150742
#	158925
#	172167
#	184087
#	197982
#	208040
#	224625
#	235665
#	248805
#	258245
#	269900
#	306702
#
# Disc length: 4259 seconds
#
# Revision: 0
# Processed by: cddbd v1.4PL0 Copyright (c) Steve Scherf et al.
# Submitted via: CDex 1.51
#
DISCID=7e10a119
DTITLE=Various Artist - Love Jazz X'mas
DYEAR=2002
DGENRE=Jazz
TTITLE0=THE CHRISTMAS SONG
TTITLE1=JINGLE BELSS
TTITLE2=WINTER WONDERLAND
TTITLE3=DECK THE HALLS
TTITLE4=WHITE CHRISTMAS
TTITLE5=CHRISTAMAS WALTS
TTITLE6=THE LITTLE DRUMMER BOY
TTITLE7=JOY TO THE WORLD
TTITLE8=RUDLPH THE RED-NOSED REINDEER
TTITLE9=HAVE YOURSELF A MERRY LITTLE CHIRSTMAS
TTITLE10=O TANNENVAUM
TTITLE11=CHRISTMAS HEART
TTITLE12=LET IT SNOW! LET IT SNOW! LET IT SNOW!
TTITLE13=THE FIRST NOEL
TTITLE14=SANTA CLAUSE IS COMMING TO TOWN
TTITLE15=I'LL BE HOME FOR CHRISTMAS
TTITLE16=RING A MERRY BELL
TTITLE17=FROSTY THE SNOWMAN
TTITLE18=WHAT ARE YOU DOING NEW YEAR'S EVE
TTITLE19=ADESTE FIDELES
TTITLE20=THE CHRISTMAS BLUES
TTITLE21=O LITTLE TOWN OF BETHLEHEM
TTITLE22=MERRY CHRISTMAS, BABY
TTITLE23=O HOLY NIGHT
TTITLE24=SILENT NIGHT
EXTD=YEAR: 2002
EXTT0=
EXTT1=
EXTT2=
EXTT3=
EXTT4=
EXTT5=
EXTT6=
EXTT7=
EXTT8=
EXTT9=
EXTT10=
EXTT11=
EXTT12=
EXTT13=
EXTT14=
EXTT15=
EXTT16=
EXTT17=
EXTT18=
EXTT19=
EXTT20=
EXTT21=
EXTT22=
EXTT23=
EXTT24=
PLAYORDER=
